<?xml version="1.0" encoding="UTF-8"?>
<svg xmlns="http://www.w3.org/2000/svg" xmlns:xlink="http://www.w3.org/1999/xlink" viewBox="0 0 64 64" width="64px" height="64px">
<g id="surface6526846">
<path style=" stroke:none;fill-rule:nonzero;fill:rgb(100%,100%,100%);fill-opacity:1;" d="M 54.5 52 L 9.5 52 C 6.75 52 4.5 49.75 4.5 47 L 4.5 17 C 4.5 14.25 6.75 12 9.5 12 L 54.5 12 C 57.25 12 59.5 14.25 59.5 17 L 59.5 47 C 59.5 49.75 57.25 52 54.5 52 Z M 54.5 52 "/>
<path style=" stroke:none;fill-rule:nonzero;fill:rgb(60.784316%,34.901962%,71.372551%);fill-opacity:1;" d="M 52 31.949219 C 52 29.699219 51.050781 27.5 48.101562 27.5 C 45.851562 27.5 44.199219 29.351562 44.199219 32.300781 C 44.199219 35.25 45.5 37.101562 48.398438 37.101562 C 50.148438 37.101562 51.300781 36.648438 51.699219 36.351562 L 51.398438 34.300781 C 51.050781 34.5 47.25 36.050781 47.101562 33.25 L 52 33.25 Z M 47.101562 31.449219 C 47.148438 30.449219 47.398438 29.5 48.199219 29.5 C 49.148438 29.5 49.25 30.898438 49.199219 31.398438 L 47.101562 31.398438 Z M 40.550781 27.5 C 39.800781 27.5 39 27.851562 38.25 28.601562 L 38.101562 27.699219 L 35.550781 27.699219 L 35.550781 40.300781 L 38.449219 39.800781 L 38.449219 36.898438 C 38.75 37.050781 39.148438 37.148438 39.699219 37.148438 C 42.351562 37.148438 43.601562 35 43.601562 32.398438 C 43.601562 29.898438 43.101562 27.5 40.550781 27.5 Z M 38.449219 34.699219 L 38.449219 31 C 38.449219 30.75 38.449219 30.550781 38.449219 30.300781 C 39.25 29.648438 40.648438 28.949219 40.648438 32.148438 C 40.648438 35.199219 39.25 35.101562 38.449219 34.699219 Z M 32.949219 26.800781 C 33.800781 26.800781 34.5 26.101562 34.5 25.25 C 34.5 24.398438 33.800781 23.699219 32.949219 23.699219 C 32.101562 23.699219 31.398438 24.398438 31.398438 25.25 C 31.351562 26.101562 32.050781 26.800781 32.949219 26.800781 Z M 31.449219 27.648438 L 34.449219 27.648438 L 34.449219 36.949219 L 31.449219 36.949219 Z M 25.699219 27.648438 L 28.25 27.648438 L 28.398438 28.75 C 28.398438 28.75 28.851562 27.199219 30.699219 27.601562 L 30.699219 30.300781 C 29.050781 30.199219 28.601562 30.898438 28.601562 31 L 28.601562 36.949219 L 25.699219 36.949219 Z M 24.699219 36.898438 L 24.699219 34.601562 C 23.5 34.898438 23.050781 34.699219 23.050781 33.648438 L 23.050781 29.898438 L 24.550781 29.898438 L 24.898438 27.699219 L 23.050781 27.699219 L 23.050781 25.050781 L 20.550781 25.449219 L 20.199219 27.699219 L 19.300781 27.851562 L 19 29.898438 L 20.199219 29.898438 L 20.199219 34.25 C 20.148438 36.449219 21.5 37.601562 24.699219 36.898438 Z M 16 34.601562 C 16.300781 33.75 15.101562 33.449219 14.398438 33.199219 C 12.300781 32.351562 12.25 31.699219 12.148438 30.398438 C 12.050781 29.101562 12.800781 28.351562 13.699219 27.898438 C 15.101562 27.25 17.851562 27.75 18.398438 28.199219 L 18.101562 30.398438 C 15.300781 29.199219 14.949219 29.898438 14.898438 30.148438 C 14.648438 31.148438 17.75 31.199219 18.550781 32.851562 C 18.949219 33.699219 19.050781 35.199219 18.148438 36.101562 C 16.25 38.050781 12.5 36.648438 12 36.300781 L 12.351562 34.050781 C 12.75 34.5 15.699219 35.449219 16 34.601562 Z M 16 34.601562 "/>
<path style=" stroke:none;fill-rule:nonzero;fill:rgb(100%,100%,100%);fill-opacity:1;" d="M 54.5 53.5 L 9.5 53.5 C 5.898438 53.5 3 50.601562 3 47 L 3 17 C 3 13.398438 5.898438 10.5 9.5 10.5 L 54.5 10.5 C 58.101562 10.5 61 13.398438 61 17 L 61 47 C 61 50.601562 58.101562 53.5 54.5 53.5 Z M 9.5 13.5 C 7.550781 13.5 6 15.050781 6 17 L 6 47 C 6 48.949219 7.550781 50.5 9.5 50.5 L 54.5 50.5 C 56.449219 50.5 58 48.949219 58 47 L 58 17 C 58 15.050781 56.449219 13.5 54.5 13.5 Z M 9.5 13.5 "/>
<path style=" stroke:none;fill-rule:nonzero;fill:rgb(100%,100%,100%);fill-opacity:1;" d="M 4.5 26 C 4.398438 26 4.300781 26 4.199219 25.949219 C 4.101562 25.949219 4 25.898438 3.898438 25.851562 C 3.800781 25.800781 3.75 25.75 3.648438 25.699219 C 3.550781 25.648438 3.5 25.601562 3.449219 25.5 C 3.398438 25.449219 3.300781 25.351562 3.25 25.300781 C 3.199219 25.199219 3.148438 25.148438 3.101562 25.050781 C 3.050781 24.949219 3.050781 24.851562 3 24.75 C 3 24.699219 3 24.601562 3 24.5 C 3 24.101562 3.148438 23.699219 3.449219 23.449219 C 3.800781 23.101562 4.300781 22.949219 4.800781 23.050781 C 4.898438 23.050781 5 23.101562 5.101562 23.148438 C 5.199219 23.199219 5.300781 23.25 5.351562 23.300781 C 5.449219 23.351562 5.5 23.398438 5.550781 23.5 C 5.601562 23.550781 5.699219 23.648438 5.75 23.699219 C 5.800781 23.800781 5.851562 23.851562 5.898438 23.949219 C 5.949219 24.050781 5.949219 24.148438 6 24.25 C 6 24.351562 6.050781 24.449219 6.050781 24.550781 C 6.050781 24.648438 6.050781 24.75 6 24.851562 C 6 24.949219 5.949219 25.050781 5.898438 25.148438 C 5.851562 25.25 5.800781 25.351562 5.75 25.398438 C 5.699219 25.5 5.648438 25.550781 5.550781 25.601562 C 5.5 25.648438 5.398438 25.75 5.351562 25.800781 C 5.25 25.851562 5.199219 25.898438 5.101562 25.949219 C 5 26 4.898438 26 4.800781 26.050781 C 4.699219 26 4.601562 26 4.5 26 Z M 4.5 26 "/>
</g>
</svg>
