<?xml version="1.0" encoding="UTF-8"?>
<svg xmlns="http://www.w3.org/2000/svg" xmlns:xlink="http://www.w3.org/1999/xlink" viewBox="0 0 64 64" width="64px" height="64px">
<g id="surface14812469">
<path style=" stroke:none;fill-rule:nonzero;fill:rgb(100%,100%,100%);fill-opacity:1;" d="M 54.5 52 L 9.5 52 C 6.75 52 4.5 49.75 4.5 47 L 4.5 17 C 4.5 14.25 6.75 12 9.5 12 L 54.5 12 C 57.25 12 59.5 14.25 59.5 17 L 59.5 47 C 59.5 49.75 57.25 52 54.5 52 Z M 54.5 52 "/>
<path style=" stroke:none;fill-rule:nonzero;fill:rgb(20.392157%,59.607846%,85.882354%);fill-opacity:1;" d="M 23.699219 41 L 25 35.5 C 25.199219 34.75 26 34.101562 26.800781 34.101562 L 27.851562 34.101562 C 32.398438 34.101562 36 33.199219 38.5 31.300781 C 41.050781 29.449219 42.300781 27 42.300781 24 C 42.300781 22.648438 42.050781 21.550781 41.601562 20.648438 C 41.148438 19.75 40.449219 19.050781 39.550781 18.5 C 38.648438 17.949219 37.550781 17.550781 36.300781 17.300781 C 35.050781 17.050781 33.601562 16.949219 31.898438 16.949219 L 24.101562 16.949219 C 23.300781 16.949219 22.5 17.601562 22.300781 18.351562 L 17.050781 41 C 16.851562 41.75 17.398438 42.398438 18.199219 42.398438 L 21.949219 42.398438 C 22.699219 42.398438 23.550781 41.75 23.699219 41 Z M 26.75 27.898438 L 27.898438 23.101562 C 28.101562 22.351562 28.898438 21.699219 29.699219 21.699219 L 30.949219 21.699219 C 32.398438 21.699219 33.449219 21.949219 34.199219 22.398438 C 34.949219 22.851562 35.300781 23.601562 35.300781 24.601562 C 35.300781 26.101562 34.75 27.25 33.601562 28.050781 C 32.449219 28.851562 30.898438 29.25 28.898438 29.25 L 27.949219 29.25 C 27.101562 29.300781 26.601562 28.648438 26.75 27.898438 Z M 26.75 27.898438 "/>
<path style=" stroke:none;fill-rule:nonzero;fill:rgb(40.000001%,40.000001%,40.000001%);fill-opacity:1;" d="M 43.949219 23 C 44.449219 23.898438 44.648438 25 44.648438 26.351562 C 44.648438 29.351562 43.398438 31.800781 40.851562 33.648438 C 38.300781 35.5 34.75 36.449219 30.199219 36.449219 L 29.148438 36.449219 C 28.351562 36.449219 27.550781 37.101562 27.351562 37.851562 L 26.050781 43.300781 C 25.851562 44.050781 25.050781 44.699219 24.25 44.699219 L 21.898438 44.699219 L 21.699219 45.601562 C 21.5 46.351562 22.050781 47 22.851562 47 L 26.601562 47 C 27.398438 47 28.199219 46.351562 28.398438 45.601562 L 29.699219 40.148438 C 29.898438 39.398438 30.699219 38.75 31.5 38.75 L 32.5 38.75 C 37.050781 38.75 40.601562 37.851562 43.148438 35.949219 C 45.699219 34.101562 46.949219 31.648438 46.949219 28.648438 C 46.949219 27.300781 46.699219 26.199219 46.25 25.300781 C 45.800781 24.398438 45.101562 23.699219 44.199219 23.148438 C 44.148438 23.050781 44.050781 23.050781 43.949219 23 Z M 43.949219 23 "/>
<path style=" stroke:none;fill-rule:nonzero;fill:rgb(100%,100%,100%);fill-opacity:1;" d="M 54.5 53.5 L 9.5 53.5 C 5.898438 53.5 3 50.601562 3 47 L 3 17 C 3 13.398438 5.898438 10.5 9.5 10.5 L 54.5 10.5 C 58.101562 10.5 61 13.398438 61 17 L 61 47 C 61 50.601562 58.101562 53.5 54.5 53.5 Z M 9.5 13.5 C 7.550781 13.5 6 15.050781 6 17 L 6 47 C 6 48.949219 7.550781 50.5 9.5 50.5 L 54.5 50.5 C 56.449219 50.5 58 48.949219 58 47 L 58 17 C 58 15.050781 56.449219 13.5 54.5 13.5 Z M 9.5 13.5 "/>
<path style=" stroke:none;fill-rule:nonzero;fill:rgb(100%,100%,100%);fill-opacity:1;" d="M 4.5 26 C 4.398438 26 4.300781 26 4.199219 25.949219 C 4.101562 25.949219 4 25.898438 3.898438 25.851562 C 3.800781 25.800781 3.75 25.75 3.648438 25.699219 C 3.550781 25.648438 3.5 25.601562 3.449219 25.5 C 3.398438 25.449219 3.300781 25.351562 3.25 25.25 C 3.199219 25.148438 3.148438 25.101562 3.101562 25 C 3.050781 24.898438 3.050781 24.800781 3 24.699219 C 3 24.699219 3 24.601562 3 24.5 C 3 24.398438 3 24.300781 3.050781 24.199219 C 3.050781 24.101562 3.101562 24 3.148438 23.898438 C 3.199219 23.800781 3.25 23.75 3.300781 23.648438 C 3.351562 23.550781 3.398438 23.5 3.5 23.449219 C 3.601562 23.398438 3.648438 23.300781 3.699219 23.25 C 3.800781 23.199219 3.851562 23.148438 3.949219 23.101562 C 4.050781 23.050781 4.148438 23.050781 4.25 23 C 4.75 22.898438 5.25 23.050781 5.601562 23.398438 C 5.648438 23.449219 5.75 23.550781 5.800781 23.601562 C 5.851562 23.699219 5.898438 23.75 5.949219 23.851562 C 6 23.949219 6 24.050781 6.050781 24.148438 C 6.050781 24.25 6.101562 24.351562 6.101562 24.449219 C 6.101562 24.550781 6.101562 24.648438 6.050781 24.75 C 6.050781 24.851562 6 24.949219 5.949219 25.050781 C 5.898438 25.148438 5.851562 25.25 5.800781 25.300781 C 5.75 25.398438 5.699219 25.449219 5.601562 25.550781 C 5.300781 25.851562 4.898438 26 4.5 26 Z M 4.5 26 "/>
</g>
</svg>
