<?xml version="1.0" encoding="UTF-8"?>
<svg xmlns="http://www.w3.org/2000/svg" xmlns:xlink="http://www.w3.org/1999/xlink" viewBox="0 0 64 64" width="64px" height="64px">
<g id="surface6505655">
<path style=" stroke:none;fill-rule:nonzero;fill:rgb(100%,100%,100%);fill-opacity:1;" d="M 54.5 53.5 L 9.5 53.5 C 6.75 53.5 4.5 51.25 4.5 48.5 L 4.5 18.5 C 4.5 15.75 6.75 13.5 9.5 13.5 L 54.5 13.5 C 57.25 13.5 59.5 15.75 59.5 18.5 L 59.5 48.5 C 59.5 51.25 57.25 53.5 54.5 53.5 Z M 54.5 53.5 "/>
<path style=" stroke:none;fill-rule:nonzero;fill:rgb(20.392157%,59.607846%,85.882354%);fill-opacity:1;" d="M 37.949219 29.300781 L 37.949219 31 L 42.75 31 L 42.75 32.851562 L 37.949219 32.851562 L 37.949219 34.699219 L 43.351562 34.699219 L 45.898438 32 L 43.449219 29.300781 Z M 14.050781 32.648438 L 17.050781 32.648438 L 15.550781 28.949219 Z M 14.050781 32.648438 "/>
<path style=" stroke:none;fill-rule:nonzero;fill:rgb(20.392157%,59.607846%,85.882354%);fill-opacity:1;" d="M 55.898438 25.550781 L 49.398438 25.550781 C 49.25 25.550781 49.148438 25.601562 49.050781 25.699219 L 47.75 27.101562 C 47.550781 27.300781 47.199219 27.300781 47 27.101562 L 45.800781 25.75 C 45.699219 25.648438 45.550781 25.601562 45.398438 25.601562 L 29.148438 25.601562 C 28.949219 25.601562 28.75 25.699219 28.699219 25.898438 L 27.851562 27.898438 C 27.699219 28.300781 27.101562 28.300781 26.949219 27.898438 L 26.050781 25.898438 C 25.949219 25.699219 25.800781 25.601562 25.601562 25.601562 L 19.648438 25.601562 C 19.351562 25.601562 19.148438 25.800781 19.148438 26.101562 L 19.148438 27.101562 L 18.550781 25.851562 C 18.449219 25.699219 18.300781 25.550781 18.101562 25.550781 L 12.949219 25.550781 C 12.75 25.550781 12.550781 25.648438 12.5 25.851562 L 7.300781 37.75 C 7.148438 38.101562 7.398438 38.449219 7.75 38.449219 L 13.398438 38.449219 C 13.601562 38.449219 13.800781 38.351562 13.851562 38.148438 L 14.449219 36.699219 C 14.550781 36.5 14.699219 36.398438 14.898438 36.398438 L 16.148438 36.398438 C 16.351562 36.398438 16.550781 36.5 16.601562 36.699219 L 17.199219 38.148438 C 17.300781 38.351562 17.449219 38.449219 17.648438 38.449219 L 24.25 38.449219 C 24.550781 38.449219 24.75 38.25 24.75 37.949219 L 24.75 36.898438 L 25.300781 38.148438 C 25.398438 38.351562 25.550781 38.449219 25.75 38.449219 L 28.949219 38.449219 C 29.148438 38.449219 29.351562 38.351562 29.398438 38.148438 L 29.949219 36.851562 L 29.949219 37.949219 C 29.949219 38.25 30.148438 38.449219 30.449219 38.449219 L 45.199219 38.449219 C 45.351562 38.449219 45.449219 38.398438 45.550781 38.300781 L 46.898438 36.851562 C 47.101562 36.648438 47.449219 36.648438 47.648438 36.851562 L 48.898438 38.25 C 49 38.351562 49.148438 38.398438 49.25 38.398438 L 55.851562 38.398438 C 56.300781 38.398438 56.5 37.898438 56.25 37.550781 L 51.601562 32.300781 C 51.449219 32.101562 51.449219 31.851562 51.601562 31.648438 L 56.25 26.351562 C 56.550781 26.050781 56.351562 25.550781 55.898438 25.550781 Z M 33.25 36.601562 L 32.050781 36.601562 C 31.75 36.601562 31.550781 36.398438 31.550781 36.101562 L 31.550781 31.75 C 31.550781 31.199219 30.800781 31.050781 30.601562 31.550781 L 28.5 36.351562 C 28.398438 36.550781 28.25 36.648438 28.050781 36.648438 L 26.75 36.648438 C 26.550781 36.648438 26.351562 36.550781 26.300781 36.351562 L 24.199219 31.550781 C 24 31.050781 23.25 31.199219 23.25 31.75 L 23.25 36.148438 C 23.25 36.449219 23.050781 36.648438 22.75 36.648438 L 19.101562 36.648438 C 18.898438 36.648438 18.699219 36.550781 18.648438 36.351562 L 18 34.851562 C 17.898438 34.648438 17.75 34.550781 17.550781 34.550781 L 13.601562 34.550781 C 13.398438 34.550781 13.199219 34.648438 13.148438 34.851562 L 12.550781 36.300781 C 12.449219 36.5 12.300781 36.601562 12.101562 36.601562 L 10.800781 36.601562 C 10.449219 36.601562 10.199219 36.25 10.351562 35.898438 L 13.898438 27.648438 C 14 27.449219 14.148438 27.351562 14.351562 27.351562 L 17 27.351562 C 17.199219 27.351562 17.398438 27.449219 17.449219 27.648438 L 20.101562 33.851562 C 20.300781 34.351562 21.050781 34.199219 21.050781 33.648438 L 21.050781 27.898438 C 21.050781 27.601562 21.25 27.398438 21.550781 27.398438 L 24.351562 27.398438 C 24.550781 27.398438 24.699219 27.5 24.800781 27.699219 L 27.101562 32.648438 C 27.300781 33.050781 27.851562 33.050781 28 32.648438 L 30.101562 27.699219 C 30.199219 27.5 30.351562 27.398438 30.550781 27.398438 L 33.300781 27.398438 C 33.601562 27.398438 33.800781 27.601562 33.800781 27.898438 L 33.800781 36.148438 C 33.75 36.398438 33.5 36.601562 33.25 36.601562 Z M 51.75 36.601562 L 50.25 36.601562 C 50.101562 36.601562 49.949219 36.550781 49.898438 36.449219 L 47.699219 33.949219 C 47.5 33.75 47.148438 33.75 46.949219 33.949219 L 44.648438 36.449219 C 44.550781 36.550781 44.398438 36.601562 44.300781 36.601562 L 36.300781 36.601562 C 36 36.601562 35.800781 36.398438 35.800781 36.101562 L 35.800781 27.898438 C 35.800781 27.601562 36 27.398438 36.300781 27.398438 L 44.449219 27.398438 C 44.601562 27.398438 44.75 27.449219 44.800781 27.550781 L 47 30 C 47.199219 30.199219 47.550781 30.199219 47.75 30 L 50.050781 27.550781 C 50.148438 27.449219 50.300781 27.398438 50.398438 27.398438 L 51.800781 27.398438 C 52.25 27.398438 52.449219 27.898438 52.148438 28.25 L 49.050781 31.75 C 48.898438 31.949219 48.898438 32.25 49.050781 32.398438 L 52.148438 35.851562 C 52.398438 36.101562 52.148438 36.601562 51.75 36.601562 Z M 51.75 36.601562 "/>
<path style=" stroke:none;fill-rule:nonzero;fill:rgb(100%,100%,100%);fill-opacity:1;" d="M 54.5 53.5 L 9.5 53.5 C 5.898438 53.5 3 50.601562 3 47 L 3 17 C 3 13.398438 5.898438 10.5 9.5 10.5 L 54.5 10.5 C 58.101562 10.5 61 13.398438 61 17 L 61 47 C 61 50.601562 58.101562 53.5 54.5 53.5 Z M 9.5 13.5 C 7.550781 13.5 6 15.050781 6 17 L 6 47 C 6 48.949219 7.550781 50.5 9.5 50.5 L 54.5 50.5 C 56.449219 50.5 58 48.949219 58 47 L 58 17 C 58 15.050781 56.449219 13.5 54.5 13.5 Z M 9.5 13.5 "/>
<path style=" stroke:none;fill-rule:nonzero;fill:rgb(100%,100%,100%);fill-opacity:1;" d="M 4.5 26 C 4.398438 26 4.300781 26 4.199219 25.949219 C 4.101562 25.949219 4 25.898438 3.898438 25.851562 C 3.800781 25.800781 3.75 25.75 3.648438 25.699219 C 3.550781 25.648438 3.5 25.601562 3.449219 25.5 C 3.148438 25.300781 3 24.898438 3 24.5 C 3 24.101562 3.148438 23.699219 3.449219 23.449219 C 3.5 23.398438 3.601562 23.300781 3.648438 23.25 C 3.75 23.199219 3.800781 23.148438 3.898438 23.101562 C 4 23.050781 4.101562 23.050781 4.199219 23 C 4.699219 22.898438 5.199219 23.050781 5.550781 23.398438 C 5.851562 23.699219 6 24.050781 6 24.449219 C 6 24.851562 5.851562 25.25 5.550781 25.5 C 5.300781 25.851562 4.898438 26 4.5 26 Z M 4.5 26 "/>
</g>
</svg>
