<?xml version="1.0" encoding="UTF-8"?>
<svg xmlns="http://www.w3.org/2000/svg" xmlns:xlink="http://www.w3.org/1999/xlink" viewBox="0 0 64 64" width="64px" height="64px">
<g id="surface14816589">
<path style=" stroke:none;fill-rule:nonzero;fill:rgb(100%,100%,100%);fill-opacity:1;" d="M 60 46.667969 C 60 49.613281 57.613281 52 54.667969 52 L 9.332031 52 C 6.386719 52 4 49.613281 4 46.667969 L 4 17.332031 C 4 14.386719 6.386719 12 9.332031 12 L 54.667969 12 C 57.613281 12 60 14.386719 60 17.332031 Z M 60 46.667969 "/>
<path style=" stroke:none;fill-rule:nonzero;fill:rgb(20.392157%,59.607846%,85.882354%);fill-opacity:1;" d="M 20.246094 25.332031 L 16.746094 35.777344 C 16.746094 35.777344 15.855469 31.359375 15.769531 30.804688 C 13.777344 26.257812 10.835938 26.507812 10.835938 26.507812 L 14.300781 40 L 14.300781 39.996094 L 18.515625 39.996094 L 24.34375 25.332031 Z M 23.585938 40 L 27.414062 40 L 29.726562 25.332031 L 25.851562 25.332031 Z M 50.675781 25.332031 L 46.648438 25.332031 L 40.371094 40 L 44.171875 40 L 44.957031 37.90625 L 49.75 37.90625 L 50.160156 40 L 53.644531 40 Z M 46.015625 35.105469 L 48.101562 29.5625 L 49.191406 35.105469 Z M 35.160156 29.609375 C 35.160156 28.800781 35.824219 28.199219 37.726562 28.199219 C 38.964844 28.199219 40.382812 29.097656 40.382812 29.097656 L 41.003906 26.019531 C 41.003906 26.019531 39.191406 25.332031 37.414062 25.332031 C 33.390625 25.332031 31.3125 27.257812 31.3125 29.695312 C 31.3125 34.101562 36.617188 33.5 36.617188 35.761719 C 36.617188 36.152344 36.3125 37.046875 34.101562 37.046875 C 31.886719 37.046875 30.421875 36.234375 30.421875 36.234375 L 29.761719 39.191406 C 29.761719 39.191406 31.179688 40 33.917969 40 C 36.664062 40 40.472656 37.945312 40.472656 34.996094 C 40.472656 31.449219 35.160156 31.191406 35.160156 29.609375 Z M 35.160156 29.609375 "/>
<path style=" stroke:none;fill-rule:nonzero;fill:rgb(96.078432%,73.725492%,0%);fill-opacity:1;" d="M 16.28125 33.261719 L 14.996094 26.929688 C 14.996094 26.929688 14.410156 25.558594 12.898438 25.558594 C 11.382812 25.558594 6.976562 25.558594 6.976562 25.558594 C 6.976562 25.558594 14.523438 27.785156 16.28125 33.261719 Z M 16.28125 33.261719 "/>
</g>
</svg>
