<?xml version="1.0" encoding="UTF-8"?>
<svg xmlns="http://www.w3.org/2000/svg" xmlns:xlink="http://www.w3.org/1999/xlink" viewBox="0 0 64 64" width="64px" height="64px">
<g id="surface14765734">
<path style=" stroke:none;fill-rule:nonzero;fill:rgb(100%,100%,100%);fill-opacity:1;" d="M 54.5 52 L 9.5 52 C 6.75 52 4.5 49.75 4.5 47 L 4.5 17 C 4.5 14.25 6.75 12 9.5 12 L 54.5 12 C 57.25 12 59.5 14.25 59.5 17 L 59.5 47 C 59.5 49.75 57.25 52 54.5 52 Z M 54.5 52 "/>
<path style=" stroke:none;fill-rule:nonzero;fill:rgb(100%,100%,100%);fill-opacity:1;" d="M 54.5 53.5 L 9.5 53.5 C 5.898438 53.5 3 50.601562 3 47 L 3 17 C 3 13.398438 5.898438 10.5 9.5 10.5 L 54.5 10.5 C 58.101562 10.5 61 13.398438 61 17 L 61 47 C 61 50.601562 58.101562 53.5 54.5 53.5 Z M 9.5 13.5 C 7.550781 13.5 6 15.050781 6 17 L 6 47 C 6 48.949219 7.550781 50.5 9.5 50.5 L 54.5 50.5 C 56.449219 50.5 58 48.949219 58 47 L 58 17 C 58 15.050781 56.449219 13.5 54.5 13.5 Z M 9.5 13.5 "/>
<path style=" stroke:none;fill-rule:nonzero;fill:rgb(100%,100%,100%);fill-opacity:1;" d="M 4.5 26 C 4.398438 26 4.300781 26 4.199219 25.949219 C 4.101562 25.949219 4 25.898438 3.898438 25.851562 C 3.800781 25.800781 3.75 25.75 3.648438 25.699219 C 3.550781 25.648438 3.5 25.601562 3.398438 25.5 C 3.351562 25.449219 3.25 25.351562 3.199219 25.25 C 3.148438 25.148438 3.101562 25.101562 3.050781 25 C 3 24.898438 3 24.800781 2.949219 24.699219 C 3 24.699219 3 24.601562 3 24.5 C 3 24.398438 3 24.300781 3.050781 24.199219 C 3.050781 24.101562 3.101562 24 3.148438 23.898438 C 3.199219 23.800781 3.25 23.75 3.300781 23.648438 C 3.351562 23.550781 3.398438 23.5 3.5 23.449219 C 4.050781 22.898438 5.050781 22.898438 5.601562 23.449219 C 5.648438 23.5 5.75 23.601562 5.800781 23.648438 C 5.851562 23.75 5.898438 23.800781 5.949219 23.898438 C 6 24 6 24.101562 6.050781 24.199219 C 6.050781 24.300781 6.101562 24.398438 6.101562 24.5 C 6.101562 24.898438 5.949219 25.300781 5.648438 25.550781 C 5.300781 25.851562 4.898438 26 4.5 26 Z M 4.5 26 "/>
<path style=" stroke:none;fill-rule:nonzero;fill:rgb(100%,41.176471%,49.019608%);fill-opacity:1;" d="M 39.5 22 C 33.976562 22 29.5 26.476562 29.5 32 C 29.5 37.523438 33.976562 42 39.5 42 C 45.023438 42 49.5 37.523438 49.5 32 C 49.5 26.476562 45.023438 22 39.5 22 Z M 39.5 22 "/>
<path style=" stroke:none;fill-rule:nonzero;fill:rgb(98.823529%,94.117647%,61.56863%);fill-opacity:1;" d="M 24.5 22 C 18.976562 22 14.5 26.476562 14.5 32 C 14.5 37.523438 18.976562 42 24.5 42 C 30.023438 42 34.5 37.523438 34.5 32 C 34.5 26.476562 30.023438 22 24.5 22 Z M 24.5 22 "/>
</g>
</svg>
